<svg xmlns="http://www.w3.org/2000/svg" width="20" height="20" viewBox="0 0 20 20"><g><g><path fill="#00adef" d="M2.927 15.386L.328 12.787a1.12 1.12 0 0 1 0-1.584L11.203.328a1.12 1.12 0 0 1 1.584 0l1.617 1.617.982.982a1.12 1.12 0 0 1 0 1.585L4.512 15.386a1.12 1.12 0 0 1-1.585 0zM14.22.556l.62.621-.395.396-.62-.621zm5.329 18.993a1.54 1.54 0 0 1-2.179 0l-5.227-5.227 2.179-2.18 5.227 5.228a1.54 1.54 0 0 1 0 2.179zm-7.286-6.18l-.857-.896c-.263-.276-.928-.192-1.461.366l-4.853 5.079a2.07 2.07 0 0 1-3.02 0l-.735-.769c-.765-.8-.825-2.062-.183-2.938l.613.641a1.388 1.388 0 0 0 .174 1.665l.735.769c.5.522 1.312.522 1.812 0l4.853-5.08c.832-.87 2.03-1.035 2.669-.366l.857.897z"/></g></g></svg>