<svg xmlns="http://www.w3.org/2000/svg" width="24" height="24" viewBox="0 0 24 24"><g><g><path fill="#ed2d23" d="M22.286 10.857v11.566c0 .87-.677 1.577-1.513 1.577h-7.059V10.857zm-12 0V24h-7.06c-.835 0-1.512-.706-1.512-1.577V10.857zM24 6.082v2.296c0 .422-.35.765-.783.765H.783A.774.774 0 0 1 0 8.378V6.082C0 5.236.7 4.55 1.565 4.55h1.742a2.68 2.68 0 0 1-.426-1.18c-.139-1.353.59-2.566 1.83-3.104a3.123 3.123 0 0 1 3.345.526l2.21 1.957C10.694 2.29 11.312 2 12 2c.685 0 1.303.289 1.733.748L15.939.793a3.12 3.12 0 0 1 3.344-.526c1.24.538 1.97 1.75 1.83 3.104a2.68 2.68 0 0 1-.425 1.18h1.747c.864 0 1.565.685 1.565 1.53zM9.653 4.273L7.006 1.927a1.533 1.533 0 0 0-1.686-.25 1.51 1.51 0 0 0-.845.997c-.243.99.523 1.877 1.495 1.877h3.682v-.255-.023zm8.78-2.684c-.518-.151-1.079.015-1.48.37l-2.606 2.31V4.55h3.605c.816 0 1.55-.588 1.609-1.384.054-.742-.383-1.36-1.127-1.578z"/></g></g></svg>