<svg xmlns="http://www.w3.org/2000/svg" width="25" height="18" viewBox="0 0 25 18"><g><g><path fill="#00adef" d="M18.75 13.607c-1.027 0-1.859-.336-1.859-1.149s1.362-1.472 2.388-1.472c1.026 0 1.328.66 1.328 1.472 0 .813-.831 1.149-1.858 1.149zm-4.447-.16h-3.896a1.07 1.07 0 0 1-1.065-1.073.3.3 0 0 1 .299-.3h5.428a.3.3 0 0 1 .299.3 1.07 1.07 0 0 1-1.065 1.073zm-8.342.16c-1.027 0-1.859-.336-1.859-1.149s.302-1.472 1.328-1.472c1.027 0 2.389.66 2.389 1.472 0 .813-.832 1.149-1.858 1.149zM7.487 2.603a1.602 1.602 0 0 1 1.243-.587h7.26c.484 0 .937.214 1.243.587.884 1.078 1.583 2.11 2.123 3.137l-14.004.002c.528-1.004 1.23-2.037 2.135-3.139zM24.175 5.38h-1.813a.535.535 0 0 0-.37.148l-.387.37c-.652-1.508-1.587-3-2.85-4.545A3.568 3.568 0 0 0 15.982.04H8.727a3.567 3.567 0 0 0-2.771 1.313c-1.304 1.594-2.22 3.05-2.857 4.54l-.381-.365a.535.535 0 0 0-.37-.148H.534A.535.535 0 0 0 0 5.915v1.239c0 .282.22.516.502.534l1.862.117c-.281.823-.5 2.048-.5 3.776 0 1.5.299 2.486.82 3.124v2.887c0 .247.2.448.448.448h2.062c.248 0 .448-.2.448-.448v-1.793h13.426v1.793c0 .247.2.448.448.448h2.062c.247 0 .448-.2.448-.448v-2.887c.521-.638.82-1.624.82-3.124 0-1.728-.219-2.953-.5-3.776l1.862-.117a.535.535 0 0 0 .502-.534v-1.24a.535.535 0 0 0-.535-.534z"/></g></g></svg>