<svg width="13" height="16" viewBox="0 0 13 16" fill="none" xmlns="http://www.w3.org/2000/svg">
<path fill-rule="evenodd" clip-rule="evenodd" d="M6.5 15.6362C6.33642 15.7575 6.16975 15.8787 6 16V15.2582C2 12.1721 0 9.08607 0 6C0 1.53963 3.18318 0.262446 6 0.038716V0C6.16395 0 6.33089 0.0029867 6.5 0.00944976C6.66911 0.0029867 6.83605 0 7 0V0.038716C9.81682 0.262446 13 1.53963 13 6C13 9.08607 11 12.1721 7 15.2582V16C6.83025 15.8787 6.66358 15.7575 6.5 15.6362ZM6.5 10C8.433 10 10 8.433 10 6.5C10 4.567 8.433 3 6.5 3C4.567 3 3 4.567 3 6.5C3 8.433 4.567 10 6.5 10Z" fill="#00ADEF"/>
</svg>
