<svg xmlns="http://www.w3.org/2000/svg" width="31" height="44" viewBox="0 0 31 44"><defs><mask id="ki4wb" width="2" height="2" x="-1" y="-1"><path fill="#fff" d="M7 7h17v17H7z"/><path d="M15.5 24a8.5 8.5 0 1 0 0-17 8.5 8.5 0 0 0 0 17z"/></mask><filter id="ki4wa" width="45" height="45" x="-7" y="-7" filterUnits="userSpaceOnUse"><feOffset in="SourceGraphic" result="FeOffset1066Out"/><feGaussianBlur in="FeOffset1066Out" result="FeGaussianBlur1067Out" stdDeviation="1.6 1.6"/></filter></defs><g><g><g><path fill="#00adef" d="M0 15.5C0 6.94 6.94 0 15.5 0 24.06 0 31 6.94 31 15.5 31 24.06 15.5 44 15.5 44S0 24.06 0 15.5zM15.5 24a8.5 8.5 0 1 0 0-17 8.5 8.5 0 0 0 0 17z"/></g><g><g filter="url(#ki4wa)"><path fill="none" d="M15.5 24a8.5 8.5 0 1 0 0-17 8.5 8.5 0 0 0 0 17z" mask="url(&quot;#ki4wb&quot;)"/><path fill="#1f1f1f" fill-opacity=".16" d="M15.5 24a8.5 8.5 0 1 0 0-17 8.5 8.5 0 0 0 0 17z"/></g><path fill="#fff" d="M15.5 24a8.5 8.5 0 1 0 0-17 8.5 8.5 0 0 0 0 17z"/></g></g></g></svg>