<svg xmlns="http://www.w3.org/2000/svg" width="32" height="32" viewBox="0 0 32 32"><defs><mask id="vdelb" width="2" height="2" x="-1" y="-1"><path fill="#fff" d="M7 5h18v18H7z"/><path d="M16 23a9 9 0 1 0 0-18 9 9 0 0 0 0 18z"/></mask><filter id="vdela" width="54" height="56" x="-11" y="-13" filterUnits="userSpaceOnUse"><feOffset dy="2" in="SourceGraphic" result="FeOffset1069Out"/><feGaussianBlur in="FeOffset1069Out" result="FeGaussianBlur1070Out" stdDeviation="3.2 3.2"/></filter><clipPath id="vdelc"><path fill="#fff" d="M16 23a9 9 0 1 0 0-18 9 9 0 0 0 0 18z"/></clipPath></defs><g><g><g filter="url(#vdela)"><path fill="none" d="M16 23a9 9 0 1 0 0-18 9 9 0 0 0 0 18z" mask="url(&quot;#vdelb&quot;)"/><path fill="#002432" fill-opacity=".32" d="M16 23a9 9 0 1 0 0-18 9 9 0 0 0 0 18z"/></g><path fill="#fff" d="M16 23a9 9 0 1 0 0-18 9 9 0 0 0 0 18z"/><path fill="none" stroke="#00adef" stroke-miterlimit="50" stroke-width="4" d="M16 23a9 9 0 1 0 0-18 9 9 0 0 0 0 18z" clip-path="url(&quot;#vdelc&quot;)"/></g></g></svg>