<svg xmlns="http://www.w3.org/2000/svg" width="88" height="64" viewBox="0 0 88 64"><g><g clip-path="url(#clip-AC6C9AFC-2D68-4BFD-AD5F-FD089116548B)"><path fill="#ed2d23" d="M30 0h58v64H0z"/></g><g><path fill="#fff" d="M50.45 36.792l17-7.792v20.26l-17 7.74zM48.45 57l-17-7.74V29l17 7.792zm.5-22l-16.5-7.525L48.95 20l16.5 7.475zm-2.5-28a3 3 0 1 1 6 0 3 3 0 0 1-6 0zm2 4h2v8h-2zm30.73 43.55a3 3 0 1 1-3.46 4.9 3 3 0 0 1 3.46-4.9zm-10.73-4.012L69.519 49l5.931 4.462L74.381 55zM23.208 59.43a3 3 0 1 1-3.515-4.86 3 3 0 0 1 3.515 4.86zm.242-5.969L29.381 49l1.069 1.538L24.519 55z"/></g></g></svg>