<svg xmlns="http://www.w3.org/2000/svg" width="114" height="40" viewBox="0 0 114 40"><g><g><g><path fill="#1e1e1e" d="M59.924 23.163c-3.21 0-5.844-2.666-5.844-5.916 0-3.25 2.634-5.917 5.844-5.917 1.728 0 3.21.75 4.28 1.917l2.223-4.334c-1.811-1.416-4.034-2.333-6.503-2.333-5.762 0-10.536 4.75-10.536 10.667 0 5.916 4.692 10.666 10.536 10.666 3.457 0 6.585-1.75 8.478-4.416l-3.786-2.75c-.988 1.416-2.717 2.416-4.692 2.416zm-45.108-16.5v15.841H4.94V6.664H0v20.842h19.755V6.663zm18.932 5.003h6.585v10.838h-8.56c.658-1.667 1.07-3.001 1.4-4.669.493-2.084.575-4.168.575-6.17zm11.515 10.838V6.664H28.807v4.668c0 1 0 3.835-.494 6.086-.247 1-1.07 3.669-2.057 5.086h-1.81l-2.55 5.002h25.836v-5.002z"/></g><g><path fill="#ed2d23" d="M16.713 35H8.07l6.503-12.5h8.643z"/></g><g><path fill="#00adef" d="M70.703 17.5H62.06L68.563 5h8.643z"/></g><g><g><path fill="#ed2d23" d="M83.973 32.247c-.617 0-1.045.337-1.185.935h2.305c-.14-.666-.634-.935-1.12-.935zm5.277.21v3.416h-1.17v-3.415h-1.432v-1.136h4.01v1.136zm-6.454 1.637c.165.61.659.86 1.276.86.453 0 .815-.192 1.012-.46l.939.552c-.428.626-1.103.985-1.976.985-1.514 0-2.477-1.06-2.477-2.421 0-1.37.971-2.421 2.387-2.421 1.342 0 2.288 1.077 2.288 2.42.017.176-.008.327-.033.485zM84.763.03h29.032l-6.124 11.917c-1.193-3.6-3.82-5.842-7.597-5.842-5.293 0-8.33 4.383-8.33 10.775 0 6.175 2.84 10.467 7.803 10.75l-6.429 12.35H64.07l14.61-28.117 1.894 1.117c.56-1.3 1.58-2.25 3.012-2.25 1.375 0 2.19.883 2.19 2.183 0 1.217-.88 2.434-2.074 3.675l-7.186 7.367-.025 3.558h14.1l-.05-5.016h-6.584l3.317-3.267c1.869-1.9 3.186-4.033 3.186-6.517 0-4.175-3.277-6.6-6.931-6.6-.675 0-1.35.084-2 .25zm.33 33.152h-2.305c.14-.598.568-.935 1.185-.935.486 0 .98.27 1.12.935zm-1.12-.935c-.617 0-1.045.337-1.185.935h2.305c-.14-.666-.634-.935-1.12-.935z"/></g><g><path fill="#ed2d23" d="M100.085 10.72c-2.453 0-3.655 2.158-3.655 6.158s1.202 6.159 3.655 6.159c1.029 0 1.835-.384 2.428-1.125l.757-1.459c.313-.95.47-2.141.47-3.575 0-4-1.202-6.158-3.655-6.158z"/></g></g></g></g></svg>