<svg width="300" height="116" viewBox="0 0 300 116" fill="none" xmlns="http://www.w3.org/2000/svg">
<g clip-path="url(#clip0)">
<path d="M230.477 69.8579C218.131 69.8579 208 59.6041 208 47.1041C208 34.6041 218.131 24.3464 230.477 24.3464C237.123 24.3464 242.823 27.231 246.938 31.7195L255.488 15.0502C248.523 9.60407 239.973 6.07715 230.477 6.07715C208.315 6.07715 189.954 24.3464 189.954 47.1041C189.954 69.8579 208 88.1272 230.477 88.1272C243.773 88.1272 255.804 81.3964 263.085 71.1425L248.523 60.5656C244.723 66.0118 238.073 69.8579 230.477 69.8579V69.8579ZM56.9846 6.39638V67.3233H19V6.40023H0V86.5618H75.9808V6.39638H56.9846ZM129.8 25.6387H155.127V67.3233H122.204C124.735 60.9118 126.319 55.781 127.588 49.3656C129.485 41.3502 129.8 33.3348 129.8 25.6348V25.6387ZM174.088 67.3233V6.40023H110.796V24.3541C110.796 28.2002 110.796 39.1041 108.896 47.7618C107.946 51.6079 104.781 61.8733 100.985 67.3233H94.0231L84.2154 86.5618H183.585V67.3233H174.088Z" fill="#1E1E1E"/>
<path d="M64.2809 115.385H31.0386L56.0501 67.3076H89.2924L64.2809 115.385Z" fill="#ED2D23"/>
<path d="M271.935 48.0769H238.692L263.704 0H296.946L271.935 48.0769Z" fill="#00ADEF"/>
</g>
<defs>
<clipPath id="clip0">
<rect width="300" height="115.385" fill="white"/>
</clipPath>
</defs>
</svg>
