<svg xmlns="http://www.w3.org/2000/svg" width="88" height="64" viewBox="0 0 88 64"><g><g clip-path="url(#clip-3E3E1A58-4A6B-424B-B8BF-183EB57FC176)"><path fill="#00adef" d="M30 0h58v64H0z"/></g><g><path fill="#fff" d="M24.001 43.14v17.5h16.667zm3 9.168a.668.668 0 0 1 1.138-.472l4.667 4.667a.667.667 0 0 1-.472 1.138h-4.666a.667.667 0 0 1-.667-.667zM48.415 28.64h7.172L52 25.055zm-12.604 24H71v-40H38.235l5.31 5.737a.96.96 0 0 1 .208.377c.009.031.025.06.032.092l1.194 5.708a1 1 0 0 1-1.259 1.164l-5.6-1.632c-.026-.008-.046-.021-.073-.032a1.155 1.155 0 0 1-.078-.035.984.984 0 0 1-.3-.211l-7.668-8.287V46.54zm17.19-32h-2v-2h2zm-2 24h2v2h-2zm-12.994-2a1 1 0 1 1 0-2h7v-11c0-.021.012-.04.012-.06a.99.99 0 0 1 .054-.266.816.816 0 0 1 .033-.094c.047-.105.112-.2.191-.283l6-6a1 1 0 0 1 1.414 0l6 6c.08.083.144.178.19.283.014.03.025.062.034.094.03.086.048.174.054.265 0 .022.012.04.012.061v11h7a1 1 0 1 1 0 2zM57 30.64h-10v10h10zm-14.81-9.652l-1.812 1.675 2.302.671zM41.394 19L24.207.99 21.27 3.707l1.719 1.856H23v.014l15.457 16.14zm34.606 35.64h1c1.65 0 2.988-1.117 3-2.5-.012-1.381-1.35-2.5-3-2.5h-1c-1.65 0-2.988 1.119-3 2.5.011 1.383 1.35 2.5 3 2.5zm-3-43.999v38.026a4.946 4.946 0 0 1 3-1.026h1a4.946 4.946 0 0 1 3 1.026V10.64a3 3 0 0 0-3-3h-1a3 3 0 0 0-3 3z"/></g></g></svg>